<?xml version="1.0" encoding="utf-8"?>
<!-- Generator: Adobe Illustrator 23.0.2, SVG Export Plug-In . SVG Version: 6.00 Build 0)  -->
<svg version="1.1" id="Layer_1" xmlns="http://www.w3.org/2000/svg" xmlns:xlink="http://www.w3.org/1999/xlink" x="0px" y="0px"
	 viewBox="0 0 150 150" style="enable-background:new 0 0 150 150;" xml:space="preserve">
<path d="M144.98,84.41c-0.15-1.08-1.15-1.83-2.23-1.68c-0.48,0.07-7.4,1.05-15.68,2.9c-2.83-12.64-9.67-19.49-9.67-19.49
	s6.31-28.39,0.39-29.97c-3.14-0.84-21.3,11.83-22.48,13.01c0,0-13.41-11.83-35.49-0.39c0,0-16.56-27.61-23.27-21.69
	s-3.94,40.23-3.94,40.23s-7.28,6.82-9.87,18.26c-8.2-1.83-15.02-2.8-15.49-2.86c-1.08-0.15-2.08,0.6-2.23,1.68
	c-0.15,1.08,0.6,2.08,1.68,2.23c0.12,0.02,7.09,1.01,15.38,2.86c-0.21,1.78-0.29,3.65-0.22,5.61c-7.21,0.98-13.04,2.56-13.43,2.67
	c-1.05,0.29-1.67,1.37-1.38,2.42c0.24,0.88,1.03,1.45,1.9,1.45c0.17,0,0.35-0.02,0.52-0.07c0.09-0.03,5.78-1.57,12.77-2.53
	c2.7,16.69,19.78,24.69,56.13,24.69c32.24,0,46.74-11.15,49.37-24.69c7,0.96,12.71,2.51,12.81,2.54c0.17,0.05,0.35,0.07,0.52,0.07
	c0.87,0,1.66-0.57,1.9-1.45c0.29-1.05-0.33-2.14-1.38-2.42c-0.4-0.11-6.22-1.69-13.42-2.66c0.03-1.1,0-2.21-0.11-3.32
	c-0.07-0.77-0.17-1.52-0.27-2.25c8.35-1.87,15.41-2.88,15.52-2.89C144.38,86.48,145.13,85.49,144.98,84.41z M68.26,92.83
	c-0.93-2.46-3.3-4.2-6.08-4.2c-3.59,0-6.51,2.91-6.51,6.51c0,3.59,2.91,6.51,6.51,6.51c1.5,0,2.88-0.51,3.98-1.37
	c-2.3,4.15-6.22,6.89-10.69,6.89c-7.08,0-12.82-6.89-12.82-15.38c0-8.49,5.74-15.38,12.82-15.38S68.3,83.29,68.3,91.78
	C68.3,92.13,68.28,92.48,68.26,92.83z M96.89,107.16c-4.46,0-8.39-2.74-10.69-6.89c1.1,0.85,2.48,1.37,3.98,1.37
	c3.59,0,6.51-2.91,6.51-6.51c0-3.59-2.91-6.51-6.51-6.51c-2.78,0-5.15,1.75-6.08,4.2c-0.02-0.35-0.03-0.7-0.03-1.05
	c0-8.49,5.74-15.38,12.82-15.38c7.08,0,12.82,6.89,12.82,15.38C109.7,100.28,103.97,107.16,96.89,107.16z"/>
</svg>
