<?xml version="1.0" encoding="utf-8"?>
<!-- Generator: Adobe Illustrator 23.0.2, SVG Export Plug-In . SVG Version: 6.00 Build 0)  -->
<svg version="1.1" id="Layer_1" xmlns="http://www.w3.org/2000/svg" xmlns:xlink="http://www.w3.org/1999/xlink" x="0px" y="0px"
	 viewBox="0 0 150 150" style="enable-background:new 0 0 150 150;" xml:space="preserve">
<style type="text/css">
	.st0{fill:#00FFFF;}
</style>
<circle class="st0" cx="75" cy="75" r="70"/>
<path d="M129.98,82.39c-0.12-0.85-0.9-1.44-1.75-1.32c-0.38,0.05-5.82,0.83-12.32,2.28c-2.23-9.93-7.6-15.31-7.6-15.31
	s4.96-22.31,0.31-23.55c-2.47-0.66-16.73,9.3-17.66,10.23c0,0-10.54-9.3-27.89-0.31c0,0-13.01-21.69-18.28-17.04
	s-3.1,31.61-3.1,31.61s-5.72,5.35-7.76,14.35c-6.44-1.44-11.8-2.2-12.17-2.25c-0.85-0.12-1.63,0.47-1.75,1.32s0.47,1.63,1.32,1.75
	c0.09,0.01,5.57,0.79,12.08,2.25c-0.16,1.4-0.23,2.87-0.17,4.4c-5.66,0.77-10.24,2.01-10.56,2.1c-0.83,0.23-1.31,1.08-1.08,1.9
	c0.19,0.69,0.81,1.14,1.49,1.14c0.14,0,0.27-0.02,0.41-0.06c0.07-0.02,4.54-1.23,10.03-1.99c2.12,13.11,15.54,19.4,44.1,19.4
	c25.33,0,36.73-8.76,38.79-19.4c5.5,0.76,9.99,1.97,10.06,1.99c0.14,0.04,0.28,0.06,0.41,0.06c0.68,0,1.3-0.45,1.49-1.14
	c0.23-0.83-0.26-1.68-1.08-1.9c-0.31-0.09-4.89-1.33-10.54-2.09c0.03-0.86,0-1.73-0.09-2.61c-0.06-0.6-0.13-1.19-0.21-1.77
	c6.56-1.47,12.1-2.26,12.2-2.27C129.51,84.02,130.1,83.24,129.98,82.39z M69.71,89.01c-0.73-1.93-2.59-3.3-4.78-3.3
	c-2.82,0-5.11,2.29-5.11,5.11c0,2.82,2.29,5.11,5.11,5.11c1.18,0,2.26-0.4,3.13-1.07c-1.8,3.26-4.89,5.41-8.4,5.41
	c-5.56,0-10.07-5.41-10.07-12.08c0-6.67,4.51-12.08,10.07-12.08s10.07,5.41,10.07,12.08C69.73,88.46,69.72,88.74,69.71,89.01z
	 M92.2,100.27c-3.51,0-6.59-2.15-8.4-5.41c0.87,0.67,1.95,1.07,3.13,1.07c2.82,0,5.11-2.29,5.11-5.11c0-2.82-2.29-5.11-5.11-5.11
	c-2.19,0-4.05,1.37-4.78,3.3c-0.02-0.27-0.03-0.55-0.03-0.82c0-6.67,4.51-12.08,10.07-12.08c5.56,0,10.07,5.41,10.07,12.08
	C102.27,94.86,97.76,100.27,92.2,100.27z"/>
</svg>
