<?xml version="1.0" encoding="utf-8"?>
<!-- Generator: Adobe Illustrator 23.0.2, SVG Export Plug-In . SVG Version: 6.00 Build 0)  -->
<svg version="1.1" id="Layer_1" xmlns="http://www.w3.org/2000/svg" xmlns:xlink="http://www.w3.org/1999/xlink" x="0px" y="0px"
	 viewBox="0 0 150 150" style="enable-background:new 0 0 150 150;" xml:space="preserve">
<style type="text/css">
	.st0{fill:#00FFFF;}
</style>
<circle class="st0" cx="74.5" cy="75.5" r="59.5"/>
<g>
	<path d="M59.66,76.1c-5.56,0-10.07,5.41-10.07,12.08s4.51,12.08,10.07,12.08c3.51,0,6.59-2.15,8.4-5.41
		c-0.87,0.67-1.95,1.07-3.13,1.07c-2.82,0-5.11-2.29-5.11-5.11c0-2.82,2.29-5.11,5.11-5.11c2.19,0,4.05,1.37,4.78,3.3
		c0.02-0.27,0.03-0.55,0.03-0.82C69.73,81.51,65.22,76.1,59.66,76.1z"/>
	<path d="M92.2,76.1c-5.56,0-10.07,5.41-10.07,12.08c0,0.28,0.01,0.55,0.03,0.82c0.73-1.93,2.59-3.3,4.78-3.3
		c2.82,0,5.11,2.29,5.11,5.11c0,2.82-2.29,5.11-5.11,5.11c-1.18,0-2.26-0.4-3.13-1.07c1.8,3.26,4.89,5.41,8.4,5.41
		c5.56,0,10.07-5.41,10.07-12.08S97.76,76.1,92.2,76.1z"/>
	<path d="M75,5C36.34,5,5,36.34,5,75c0,38.66,31.34,70,70,70s70-31.34,70-70C145,36.34,113.66,5,75,5z M128.67,84.14
		c-0.09,0.01-5.63,0.8-12.2,2.27c0.08,0.58,0.16,1.17,0.21,1.77c0.08,0.88,0.11,1.75,0.09,2.61c5.66,0.77,10.23,2.01,10.54,2.09
		c0.82,0.23,1.31,1.08,1.08,1.9c-0.19,0.69-0.81,1.14-1.49,1.14c-0.14,0-0.27-0.02-0.41-0.06c-0.07-0.02-4.56-1.24-10.06-1.99
		c-2.06,10.64-13.46,19.4-38.79,19.4c-28.56,0-41.98-6.28-44.1-19.4c-5.49,0.76-9.96,1.97-10.03,1.99
		c-0.14,0.04-0.28,0.06-0.41,0.06c-0.68,0-1.3-0.45-1.49-1.14c-0.23-0.83,0.26-1.68,1.08-1.9c0.31-0.09,4.89-1.33,10.56-2.1
		c-0.06-1.54,0.01-3,0.17-4.4c-6.51-1.46-11.99-2.23-12.08-2.25c-0.85-0.12-1.44-0.9-1.32-1.75c0.12-0.85,0.9-1.44,1.75-1.32
		c0.38,0.05,5.73,0.81,12.17,2.25c2.04-8.99,7.76-14.35,7.76-14.35s-2.17-26.96,3.1-31.61c5.27-4.65,18.28,17.04,18.28,17.04
		c17.35-8.99,27.89,0.31,27.89,0.31c0.93-0.93,15.19-10.88,17.66-10.23c4.65,1.24-0.31,23.55-0.31,23.55s5.37,5.38,7.6,15.31
		c6.51-1.46,11.94-2.23,12.32-2.28c0.85-0.12,1.63,0.47,1.75,1.32C130.1,83.24,129.51,84.02,128.67,84.14z"/>
</g>
</svg>
